# xmcd CD database file
#
# Track frame offsets:
#	150
#	28685
#	60110
#	86727
#	114511
#	163828
#	182344
#	221832
#	259148
#	292742
#	324943
#
# Disc length: 4757 seconds
#
# Revision: 0
# Processed by: cddbd v1.5.2PL0 Copyright (c) Steve Scherf et al.
# Submitted via: CDex 1.70beta2
#
DISCID=8f12930b
DTITLE=Stan Getz - Stan Getz Quintets Disc 3
DYEAR=1900
DGENRE=Jazz
TTITLE0=It Don't Mean A Thing
TTITLE1=The Varsity Drag
TTITLE2=Give Me the Simple Life
TTITLE3=Oh, Jane Snavely
TTITLE4=I'll Remember April
TTITLE5=We'll Be Together Again EP version
TTITLE6=We'll Be Together Again LP version
TTITLE7=Feather Merchant
TTITLE8=Flamingo
TTITLE9=Blue Bells
TTITLE10=Round Up Time
EXTD=
EXTT0=
EXTT1=
EXTT2=
EXTT3=
EXTT4=
EXTT5=
EXTT6=
EXTT7=
EXTT8=
EXTT9=
EXTT10=
PLAYORDER=
